<svg xmlns="http://www.w3.org/2000/svg" width="1032" height="1120" viewBox="0 0 1032 1120" role="presentation">
<defs>
<linearGradient id="g" x1="0" y1="0" x2="1" y2="1">
<stop offset="0" stop-color="#1B1512"/><stop offset=".55" stop-color="#3A2A21"/><stop offset="1" stop-color="#120E0C"/>
</linearGradient>
<radialGradient id="r" cx=".5" cy=".42" r=".75">
<stop offset="0" stop-color="#D2A473" stop-opacity=".40"/>
<stop offset="1" stop-color="#D2A473" stop-opacity="0"/>
</radialGradient>
<linearGradient id="s" x1="0" y1="0" x2="0" y2="1">
<stop offset="0" stop-color="#000" stop-opacity="0"/><stop offset="1" stop-color="#000" stop-opacity=".45"/>
</linearGradient>
</defs>
<rect width="1032" height="1120" fill="url(#g)"/>
<rect width="1032" height="1120" fill="url(#r)"/>
<g fill="none" stroke="#D2A473" stroke-opacity=".22" stroke-width="1">
<path d="M-103 134 C 289 22, 640 336, 1135 112"/><path d="M-103 258 C 289 146, 640 459, 1135 235"/><path d="M-103 381 C 289 269, 640 582, 1135 358"/><path d="M-103 504 C 289 392, 640 706, 1135 482"/><path d="M-103 627 C 289 515, 640 829, 1135 605"/><path d="M-103 750 C 289 638, 640 952, 1135 728"/><path d="M-103 874 C 289 762, 640 1075, 1135 851"/>
</g>
<rect width="1032" height="1120" fill="url(#s)"/>

</svg>